<svg preserveAspectRatio="none" width="100%" height="100%" overflow="visible" style="display: block;" viewBox="0 0 3.5 17.5" fill="none" xmlns="http://www.w3.org/2000/svg">
<g id="Vector">
<path d="M1.75 9.75C2.30228 9.75 2.75 9.30228 2.75 8.75C2.75 8.19772 2.30228 7.75 1.75 7.75C1.19772 7.75 0.75 8.19772 0.75 8.75C0.75 9.30228 1.19772 9.75 1.75 9.75Z" stroke="var(--stroke-0, #201E24)" stroke-width="1.5" stroke-linecap="round" stroke-linejoin="round"/>
<path d="M1.75 2.75C2.30228 2.75 2.75 2.30228 2.75 1.75C2.75 1.19772 2.30228 0.75 1.75 0.75C1.19772 0.75 0.75 1.19772 0.75 1.75C0.75 2.30228 1.19772 2.75 1.75 2.75Z" stroke="var(--stroke-0, #201E24)" stroke-width="1.5" stroke-linecap="round" stroke-linejoin="round"/>
<path d="M1.75 16.75C2.30228 16.75 2.75 16.3023 2.75 15.75C2.75 15.1977 2.30228 14.75 1.75 14.75C1.19772 14.75 0.75 15.1977 0.75 15.75C0.75 16.3023 1.19772 16.75 1.75 16.75Z" stroke="var(--stroke-0, #201E24)" stroke-width="1.5" stroke-linecap="round" stroke-linejoin="round"/>
</g>
</svg>
